solid OpenSCAD_Model
  facet normal -1 0 0
    outer loop
      vertex 81.5 -5 22.5
      vertex 81.5 0 27.5
      vertex 81.5 0 22.5
    endloop
  endfacet
  facet normal -1 -0 0
    outer loop
      vertex 81.5 0 27.5
      vertex 81.5 -5 22.5
      vertex 81.5 -5 27.5
    endloop
  endfacet
  facet normal -0 0 1
    outer loop
      vertex 81.5 0 27.5
      vertex 82.5 -5 27.5
      vertex 82.5 0 27.5
    endloop
  endfacet
  facet normal 0 0 1
    outer loop
      vertex 82.5 -5 27.5
      vertex 81.5 0 27.5
      vertex 81.5 -5 27.5
    endloop
  endfacet
  facet normal 1 -0 0
    outer loop
      vertex 82.5 -5 27.5
      vertex 82.5 0 22.5
      vertex 82.5 0 27.5
    endloop
  endfacet
  facet normal 1 0 0
    outer loop
      vertex 82.5 0 22.5
      vertex 82.5 -5 27.5
      vertex 82.5 -5 22.5
    endloop
  endfacet
  facet normal 0 1 -0
    outer loop
      vertex 82.5 0 22.5
      vertex 81.5 0 27.5
      vertex 82.5 0 27.5
    endloop
  endfacet
  facet normal 0 1 0
    outer loop
      vertex 81.5 0 27.5
      vertex 82.5 0 22.5
      vertex 81.5 0 22.5
    endloop
  endfacet
  facet normal 0 0 -1
    outer loop
      vertex 81.5 -5 22.5
      vertex 82.5 0 22.5
      vertex 82.5 -5 22.5
    endloop
  endfacet
  facet normal -0 0 -1
    outer loop
      vertex 82.5 0 22.5
      vertex 81.5 -5 22.5
      vertex 81.5 0 22.5
    endloop
  endfacet
  facet normal 0 -1 0
    outer loop
      vertex 81.5 -5 22.5
      vertex 82.5 -5 27.5
      vertex 81.5 -5 27.5
    endloop
  endfacet
  facet normal 0 -1 -0
    outer loop
      vertex 82.5 -5 27.5
      vertex 81.5 -5 22.5
      vertex 82.5 -5 22.5
    endloop
  endfacet
  facet normal -1 0 0
    outer loop
      vertex 81.5 1.3 22.5
      vertex 81.5 6.3 27.5
      vertex 81.5 6.3 22.5
    endloop
  endfacet
  facet normal -1 -0 0
    outer loop
      vertex 81.5 6.3 27.5
      vertex 81.5 1.3 22.5
      vertex 81.5 1.3 27.5
    endloop
  endfacet
  facet normal -0 0 1
    outer loop
      vertex 81.5 6.3 27.5
      vertex 82.5 1.3 27.5
      vertex 82.5 6.3 27.5
    endloop
  endfacet
  facet normal 0 0 1
    outer loop
      vertex 82.5 1.3 27.5
      vertex 81.5 6.3 27.5
      vertex 81.5 1.3 27.5
    endloop
  endfacet
  facet normal 1 -0 0
    outer loop
      vertex 82.5 1.3 27.5
      vertex 82.5 6.3 22.5
      vertex 82.5 6.3 27.5
    endloop
  endfacet
  facet normal 1 0 0
    outer loop
      vertex 82.5 6.3 22.5
      vertex 82.5 1.3 27.5
      vertex 82.5 1.3 22.5
    endloop
  endfacet
  facet normal 0 1 -0
    outer loop
      vertex 82.5 6.3 22.5
      vertex 81.5 6.3 27.5
      vertex 82.5 6.3 27.5
    endloop
  endfacet
  facet normal 0 1 0
    outer loop
      vertex 81.5 6.3 27.5
      vertex 82.5 6.3 22.5
      vertex 81.5 6.3 22.5
    endloop
  endfacet
  facet normal 0 0 -1
    outer loop
      vertex 81.5 1.3 22.5
      vertex 82.5 6.3 22.5
      vertex 82.5 1.3 22.5
    endloop
  endfacet
  facet normal -0 0 -1
    outer loop
      vertex 82.5 6.3 22.5
      vertex 81.5 1.3 22.5
      vertex 81.5 6.3 22.5
    endloop
  endfacet
  facet normal 0 -1 0
    outer loop
      vertex 81.5 1.3 22.5
      vertex 82.5 1.3 27.5
      vertex 81.5 1.3 27.5
    endloop
  endfacet
  facet normal 0 -1 -0
    outer loop
      vertex 82.5 1.3 27.5
      vertex 81.5 1.3 22.5
      vertex 82.5 1.3 22.5
    endloop
  endfacet
  facet normal -1 0 0
    outer loop
      vertex 81.5 7.6 22.5
      vertex 81.5 12.6 27.5
      vertex 81.5 12.6 22.5
    endloop
  endfacet
  facet normal -1 -0 0
    outer loop
      vertex 81.5 12.6 27.5
      vertex 81.5 7.6 22.5
      vertex 81.5 7.6 27.5
    endloop
  endfacet
  facet normal -0 0 1
    outer loop
      vertex 81.5 12.6 27.5
      vertex 82.5 7.6 27.5
      vertex 82.5 12.6 27.5
    endloop
  endfacet
  facet normal 0 0 1
    outer loop
      vertex 82.5 7.6 27.5
      vertex 81.5 12.6 27.5
      vertex 81.5 7.6 27.5
    endloop
  endfacet
  facet normal 1 -0 0
    outer loop
      vertex 82.5 7.6 27.5
      vertex 82.5 12.6 22.5
      vertex 82.5 12.6 27.5
    endloop
  endfacet
  facet normal 1 0 0
    outer loop
      vertex 82.5 12.6 22.5
      vertex 82.5 7.6 27.5
      vertex 82.5 7.6 22.5
    endloop
  endfacet
  facet normal 0 1 -0
    outer loop
      vertex 82.5 12.6 22.5
      vertex 81.5 12.6 27.5
      vertex 82.5 12.6 27.5
    endloop
  endfacet
  facet normal 0 1 0
    outer loop
      vertex 81.5 12.6 27.5
      vertex 82.5 12.6 22.5
      vertex 81.5 12.6 22.5
    endloop
  endfacet
  facet normal 0 0 -1
    outer loop
      vertex 81.5 7.6 22.5
      vertex 82.5 12.6 22.5
      vertex 82.5 7.6 22.5
    endloop
  endfacet
  facet normal -0 0 -1
    outer loop
      vertex 82.5 12.6 22.5
      vertex 81.5 7.6 22.5
      vertex 81.5 12.6 22.5
    endloop
  endfacet
  facet normal 0 -1 0
    outer loop
      vertex 81.5 7.6 22.5
      vertex 82.5 7.6 27.5
      vertex 81.5 7.6 27.5
    endloop
  endfacet
  facet normal 0 -1 -0
    outer loop
      vertex 82.5 7.6 27.5
      vertex 81.5 7.6 22.5
      vertex 82.5 7.6 22.5
    endloop
  endfacet
  facet normal -1 0 0
    outer loop
      vertex 81.5 13.9 22.5
      vertex 81.5 18.9 27.5
      vertex 81.5 18.9 22.5
    endloop
  endfacet
  facet normal -1 -0 0
    outer loop
      vertex 81.5 18.9 27.5
      vertex 81.5 13.9 22.5
      vertex 81.5 13.9 27.5
    endloop
  endfacet
  facet normal -0 0 1
    outer loop
      vertex 81.5 18.9 27.5
      vertex 82.5 13.9 27.5
      vertex 82.5 18.9 27.5
    endloop
  endfacet
  facet normal 0 0 1
    outer loop
      vertex 82.5 13.9 27.5
      vertex 81.5 18.9 27.5
      vertex 81.5 13.9 27.5
    endloop
  endfacet
  facet normal 1 -0 0
    outer loop
      vertex 82.5 13.9 27.5
      vertex 82.5 18.9 22.5
      vertex 82.5 18.9 27.5
    endloop
  endfacet
  facet normal 1 0 0
    outer loop
      vertex 82.5 18.9 22.5
      vertex 82.5 13.9 27.5
      vertex 82.5 13.9 22.5
    endloop
  endfacet
  facet normal 0 1 -0
    outer loop
      vertex 82.5 18.9 22.5
      vertex 81.5 18.9 27.5
      vertex 82.5 18.9 27.5
    endloop
  endfacet
  facet normal 0 1 0
    outer loop
      vertex 81.5 18.9 27.5
      vertex 82.5 18.9 22.5
      vertex 81.5 18.9 22.5
    endloop
  endfacet
  facet normal 0 0 -1
    outer loop
      vertex 81.5 13.9 22.5
      vertex 82.5 18.9 22.5
      vertex 82.5 13.9 22.5
    endloop
  endfacet
  facet normal -0 0 -1
    outer loop
      vertex 82.5 18.9 22.5
      vertex 81.5 13.9 22.5
      vertex 81.5 18.9 22.5
    endloop
  endfacet
  facet normal 0 -1 0
    outer loop
      vertex 81.5 13.9 22.5
      vertex 82.5 13.9 27.5
      vertex 81.5 13.9 27.5
    endloop
  endfacet
  facet normal 0 -1 -0
    outer loop
      vertex 82.5 13.9 27.5
      vertex 81.5 13.9 22.5
      vertex 82.5 13.9 22.5
    endloop
  endfacet
  facet normal -1 0 0
    outer loop
      vertex 81.5 20.2 22.5
      vertex 81.5 25.2 27.5
      vertex 81.5 25.2 22.5
    endloop
  endfacet
  facet normal -1 -0 0
    outer loop
      vertex 81.5 25.2 27.5
      vertex 81.5 20.2 22.5
      vertex 81.5 20.2 27.5
    endloop
  endfacet
  facet normal -0 0 1
    outer loop
      vertex 81.5 25.2 27.5
      vertex 82.5 20.2 27.5
      vertex 82.5 25.2 27.5
    endloop
  endfacet
  facet normal 0 0 1
    outer loop
      vertex 82.5 20.2 27.5
      vertex 81.5 25.2 27.5
      vertex 81.5 20.2 27.5
    endloop
  endfacet
  facet normal 1 -0 0
    outer loop
      vertex 82.5 20.2 27.5
      vertex 82.5 25.2 22.5
      vertex 82.5 25.2 27.5
    endloop
  endfacet
  facet normal 1 0 0
    outer loop
      vertex 82.5 25.2 22.5
      vertex 82.5 20.2 27.5
      vertex 82.5 20.2 22.5
    endloop
  endfacet
  facet normal 0 1 -0
    outer loop
      vertex 82.5 25.2 22.5
      vertex 81.5 25.2 27.5
      vertex 82.5 25.2 27.5
    endloop
  endfacet
  facet normal 0 1 0
    outer loop
      vertex 81.5 25.2 27.5
      vertex 82.5 25.2 22.5
      vertex 81.5 25.2 22.5
    endloop
  endfacet
  facet normal 0 0 -1
    outer loop
      vertex 81.5 20.2 22.5
      vertex 82.5 25.2 22.5
      vertex 82.5 20.2 22.5
    endloop
  endfacet
  facet normal -0 0 -1
    outer loop
      vertex 82.5 25.2 22.5
      vertex 81.5 20.2 22.5
      vertex 81.5 25.2 22.5
    endloop
  endfacet
  facet normal 0 -1 0
    outer loop
      vertex 81.5 20.2 22.5
      vertex 82.5 20.2 27.5
      vertex 81.5 20.2 27.5
    endloop
  endfacet
  facet normal 0 -1 -0
    outer loop
      vertex 82.5 20.2 27.5
      vertex 81.5 20.2 22.5
      vertex 82.5 20.2 22.5
    endloop
  endfacet
  facet normal -1 0 0
    outer loop
      vertex 81.5 26.5 22.5
      vertex 81.5 31.5 27.5
      vertex 81.5 31.5 22.5
    endloop
  endfacet
  facet normal -1 -0 0
    outer loop
      vertex 81.5 31.5 27.5
      vertex 81.5 26.5 22.5
      vertex 81.5 26.5 27.5
    endloop
  endfacet
  facet normal -0 0 1
    outer loop
      vertex 81.5 31.5 27.5
      vertex 82.5 26.5 27.5
      vertex 82.5 31.5 27.5
    endloop
  endfacet
  facet normal 0 0 1
    outer loop
      vertex 82.5 26.5 27.5
      vertex 81.5 31.5 27.5
      vertex 81.5 26.5 27.5
    endloop
  endfacet
  facet normal 1 -0 0
    outer loop
      vertex 82.5 26.5 27.5
      vertex 82.5 31.5 22.5
      vertex 82.5 31.5 27.5
    endloop
  endfacet
  facet normal 1 0 0
    outer loop
      vertex 82.5 31.5 22.5
      vertex 82.5 26.5 27.5
      vertex 82.5 26.5 22.5
    endloop
  endfacet
  facet normal 0 1 -0
    outer loop
      vertex 82.5 31.5 22.5
      vertex 81.5 31.5 27.5
      vertex 82.5 31.5 27.5
    endloop
  endfacet
  facet normal 0 1 0
    outer loop
      vertex 81.5 31.5 27.5
      vertex 82.5 31.5 22.5
      vertex 81.5 31.5 22.5
    endloop
  endfacet
  facet normal 0 0 -1
    outer loop
      vertex 81.5 26.5 22.5
      vertex 82.5 31.5 22.5
      vertex 82.5 26.5 22.5
    endloop
  endfacet
  facet normal -0 0 -1
    outer loop
      vertex 82.5 31.5 22.5
      vertex 81.5 26.5 22.5
      vertex 81.5 31.5 22.5
    endloop
  endfacet
  facet normal 0 -1 0
    outer loop
      vertex 81.5 26.5 22.5
      vertex 82.5 26.5 27.5
      vertex 81.5 26.5 27.5
    endloop
  endfacet
  facet normal 0 -1 -0
    outer loop
      vertex 82.5 26.5 27.5
      vertex 81.5 26.5 22.5
      vertex 82.5 26.5 22.5
    endloop
  endfacet
  facet normal -1 0 0
    outer loop
      vertex 81.5 32.8 22.5
      vertex 81.5 37.8 27.5
      vertex 81.5 37.8 22.5
    endloop
  endfacet
  facet normal -1 -0 0
    outer loop
      vertex 81.5 37.8 27.5
      vertex 81.5 32.8 22.5
      vertex 81.5 32.8 27.5
    endloop
  endfacet
  facet normal -0 0 1
    outer loop
      vertex 81.5 37.8 27.5
      vertex 82.5 32.8 27.5
      vertex 82.5 37.8 27.5
    endloop
  endfacet
  facet normal 0 0 1
    outer loop
      vertex 82.5 32.8 27.5
      vertex 81.5 37.8 27.5
      vertex 81.5 32.8 27.5
    endloop
  endfacet
  facet normal 1 -0 0
    outer loop
      vertex 82.5 32.8 27.5
      vertex 82.5 37.8 22.5
      vertex 82.5 37.8 27.5
    endloop
  endfacet
  facet normal 1 0 0
    outer loop
      vertex 82.5 37.8 22.5
      vertex 82.5 32.8 27.5
      vertex 82.5 32.8 22.5
    endloop
  endfacet
  facet normal 0 1 -0
    outer loop
      vertex 82.5 37.8 22.5
      vertex 81.5 37.8 27.5
      vertex 82.5 37.8 27.5
    endloop
  endfacet
  facet normal 0 1 0
    outer loop
      vertex 81.5 37.8 27.5
      vertex 82.5 37.8 22.5
      vertex 81.5 37.8 22.5
    endloop
  endfacet
  facet normal 0 0 -1
    outer loop
      vertex 81.5 32.8 22.5
      vertex 82.5 37.8 22.5
      vertex 82.5 32.8 22.5
    endloop
  endfacet
  facet normal -0 0 -1
    outer loop
      vertex 82.5 37.8 22.5
      vertex 81.5 32.8 22.5
      vertex 81.5 37.8 22.5
    endloop
  endfacet
  facet normal 0 -1 0
    outer loop
      vertex 81.5 32.8 22.5
      vertex 82.5 32.8 27.5
      vertex 81.5 32.8 27.5
    endloop
  endfacet
  facet normal 0 -1 -0
    outer loop
      vertex 82.5 32.8 27.5
      vertex 81.5 32.8 22.5
      vertex 82.5 32.8 22.5
    endloop
  endfacet
  facet normal -1 0 0
    outer loop
      vertex 81.5 39.1 22.5
      vertex 81.5 44.1 27.5
      vertex 81.5 44.1 22.5
    endloop
  endfacet
  facet normal -1 -0 0
    outer loop
      vertex 81.5 44.1 27.5
      vertex 81.5 39.1 22.5
      vertex 81.5 39.1 27.5
    endloop
  endfacet
  facet normal -0 0 1
    outer loop
      vertex 81.5 44.1 27.5
      vertex 82.5 39.1 27.5
      vertex 82.5 44.1 27.5
    endloop
  endfacet
  facet normal 0 0 1
    outer loop
      vertex 82.5 39.1 27.5
      vertex 81.5 44.1 27.5
      vertex 81.5 39.1 27.5
    endloop
  endfacet
  facet normal 1 -0 0
    outer loop
      vertex 82.5 39.1 27.5
      vertex 82.5 44.1 22.5
      vertex 82.5 44.1 27.5
    endloop
  endfacet
  facet normal 1 0 0
    outer loop
      vertex 82.5 44.1 22.5
      vertex 82.5 39.1 27.5
      vertex 82.5 39.1 22.5
    endloop
  endfacet
  facet normal 0 1 -0
    outer loop
      vertex 82.5 44.1 22.5
      vertex 81.5 44.1 27.5
      vertex 82.5 44.1 27.5
    endloop
  endfacet
  facet normal 0 1 0
    outer loop
      vertex 81.5 44.1 27.5
      vertex 82.5 44.1 22.5
      vertex 81.5 44.1 22.5
    endloop
  endfacet
  facet normal 0 0 -1
    outer loop
      vertex 81.5 39.1 22.5
      vertex 82.5 44.1 22.5
      vertex 82.5 39.1 22.5
    endloop
  endfacet
  facet normal -0 0 -1
    outer loop
      vertex 82.5 44.1 22.5
      vertex 81.5 39.1 22.5
      vertex 81.5 44.1 22.5
    endloop
  endfacet
  facet normal 0 -1 0
    outer loop
      vertex 81.5 39.1 22.5
      vertex 82.5 39.1 27.5
      vertex 81.5 39.1 27.5
    endloop
  endfacet
  facet normal 0 -1 -0
    outer loop
      vertex 82.5 39.1 27.5
      vertex 81.5 39.1 22.5
      vertex 82.5 39.1 22.5
    endloop
  endfacet
  facet normal -1 0 0
    outer loop
      vertex 82.3 -80 0
      vertex 82.3 -79.8 0.2
      vertex 82.3 -79.8 0
    endloop
  endfacet
  facet normal -1 -0 0
    outer loop
      vertex 82.3 -79.8 0.2
      vertex 82.3 -80 0
      vertex 82.3 -80 0.2
    endloop
  endfacet
  facet normal -0 0 1
    outer loop
      vertex 82.3 -79.8 0.2
      vertex 82.5 -80 0.2
      vertex 82.5 -79.8 0.2
    endloop
  endfacet
  facet normal 0 0 1
    outer loop
      vertex 82.5 -80 0.2
      vertex 82.3 -79.8 0.2
      vertex 82.3 -80 0.2
    endloop
  endfacet
  facet normal 1 -0 0
    outer loop
      vertex 82.5 -80 0.2
      vertex 82.5 -79.8 0
      vertex 82.5 -79.8 0.2
    endloop
  endfacet
  facet normal 1 0 0
    outer loop
      vertex 82.5 -79.8 0
      vertex 82.5 -80 0.2
      vertex 82.5 -80 0
    endloop
  endfacet
  facet normal 0 0 -1
    outer loop
      vertex 82.3 -80 0
      vertex 82.5 -79.8 0
      vertex 82.5 -80 0
    endloop
  endfacet
  facet normal -0 0 -1
    outer loop
      vertex 82.5 -79.8 0
      vertex 82.3 -80 0
      vertex 82.3 -79.8 0
    endloop
  endfacet
  facet normal 0 -1 0
    outer loop
      vertex 82.3 -80 0
      vertex 82.5 -80 0.2
      vertex 82.3 -80 0.2
    endloop
  endfacet
  facet normal 0 -1 -0
    outer loop
      vertex 82.5 -80 0.2
      vertex 82.3 -80 0
      vertex 82.5 -80 0
    endloop
  endfacet
  facet normal 0 1 -0
    outer loop
      vertex 82.5 -79.8 0
      vertex 82.3 -79.8 0.2
      vertex 82.5 -79.8 0.2
    endloop
  endfacet
  facet normal 0 1 0
    outer loop
      vertex 82.3 -79.8 0.2
      vertex 82.5 -79.8 0
      vertex 82.3 -79.8 0
    endloop
  endfacet
  facet normal -1 0 0
    outer loop
      vertex -82.5 -80 0
      vertex -82.5 -79.8 0.2
      vertex -82.5 -79.8 0
    endloop
  endfacet
  facet normal -1 -0 0
    outer loop
      vertex -82.5 -79.8 0.2
      vertex -82.5 -80 0
      vertex -82.5 -80 0.2
    endloop
  endfacet
  facet normal -0 0 1
    outer loop
      vertex -82.5 -79.8 0.2
      vertex -82.3 -80 0.2
      vertex -82.3 -79.8 0.2
    endloop
  endfacet
  facet normal 0 0 1
    outer loop
      vertex -82.3 -80 0.2
      vertex -82.5 -79.8 0.2
      vertex -82.5 -80 0.2
    endloop
  endfacet
  facet normal 1 -0 0
    outer loop
      vertex -82.3 -80 0.2
      vertex -82.3 -79.8 0
      vertex -82.3 -79.8 0.2
    endloop
  endfacet
  facet normal 1 0 0
    outer loop
      vertex -82.3 -79.8 0
      vertex -82.3 -80 0.2
      vertex -82.3 -80 0
    endloop
  endfacet
  facet normal 0 0 -1
    outer loop
      vertex -82.5 -80 0
      vertex -82.3 -79.8 0
      vertex -82.3 -80 0
    endloop
  endfacet
  facet normal -0 0 -1
    outer loop
      vertex -82.3 -79.8 0
      vertex -82.5 -80 0
      vertex -82.5 -79.8 0
    endloop
  endfacet
  facet normal 0 -1 0
    outer loop
      vertex -82.5 -80 0
      vertex -82.3 -80 0.2
      vertex -82.5 -80 0.2
    endloop
  endfacet
  facet normal 0 -1 -0
    outer loop
      vertex -82.3 -80 0.2
      vertex -82.5 -80 0
      vertex -82.3 -80 0
    endloop
  endfacet
  facet normal 0 1 -0
    outer loop
      vertex -82.3 -79.8 0
      vertex -82.5 -79.8 0.2
      vertex -82.3 -79.8 0.2
    endloop
  endfacet
  facet normal 0 1 0
    outer loop
      vertex -82.5 -79.8 0.2
      vertex -82.3 -79.8 0
      vertex -82.5 -79.8 0
    endloop
  endfacet
  facet normal -1 0 0
    outer loop
      vertex 82.3 119.8 0
      vertex 82.3 120 0.2
      vertex 82.3 120 0
    endloop
  endfacet
  facet normal -1 -0 0
    outer loop
      vertex 82.3 120 0.2
      vertex 82.3 119.8 0
      vertex 82.3 119.8 0.2
    endloop
  endfacet
  facet normal -0 0 1
    outer loop
      vertex 82.3 120 0.2
      vertex 82.5 119.8 0.2
      vertex 82.5 120 0.2
    endloop
  endfacet
  facet normal 0 0 1
    outer loop
      vertex 82.5 119.8 0.2
      vertex 82.3 120 0.2
      vertex 82.3 119.8 0.2
    endloop
  endfacet
  facet normal 1 -0 0
    outer loop
      vertex 82.5 119.8 0.2
      vertex 82.5 120 0
      vertex 82.5 120 0.2
    endloop
  endfacet
  facet normal 1 0 0
    outer loop
      vertex 82.5 120 0
      vertex 82.5 119.8 0.2
      vertex 82.5 119.8 0
    endloop
  endfacet
  facet normal 0 0 -1
    outer loop
      vertex 82.3 119.8 0
      vertex 82.5 120 0
      vertex 82.5 119.8 0
    endloop
  endfacet
  facet normal -0 0 -1
    outer loop
      vertex 82.5 120 0
      vertex 82.3 119.8 0
      vertex 82.3 120 0
    endloop
  endfacet
  facet normal 0 -1 0
    outer loop
      vertex 82.3 119.8 0
      vertex 82.5 119.8 0.2
      vertex 82.3 119.8 0.2
    endloop
  endfacet
  facet normal 0 -1 -0
    outer loop
      vertex 82.5 119.8 0.2
      vertex 82.3 119.8 0
      vertex 82.5 119.8 0
    endloop
  endfacet
  facet normal 0 1 -0
    outer loop
      vertex 82.5 120 0
      vertex 82.3 120 0.2
      vertex 82.5 120 0.2
    endloop
  endfacet
  facet normal 0 1 0
    outer loop
      vertex 82.3 120 0.2
      vertex 82.5 120 0
      vertex 82.3 120 0
    endloop
  endfacet
  facet normal -1 0 0
    outer loop
      vertex -82.5 119.8 0
      vertex -82.5 120 0.2
      vertex -82.5 120 0
    endloop
  endfacet
  facet normal -1 -0 0
    outer loop
      vertex -82.5 120 0.2
      vertex -82.5 119.8 0
      vertex -82.5 119.8 0.2
    endloop
  endfacet
  facet normal -0 0 1
    outer loop
      vertex -82.5 120 0.2
      vertex -82.3 119.8 0.2
      vertex -82.3 120 0.2
    endloop
  endfacet
  facet normal 0 0 1
    outer loop
      vertex -82.3 119.8 0.2
      vertex -82.5 120 0.2
      vertex -82.5 119.8 0.2
    endloop
  endfacet
  facet normal 1 -0 0
    outer loop
      vertex -82.3 119.8 0.2
      vertex -82.3 120 0
      vertex -82.3 120 0.2
    endloop
  endfacet
  facet normal 1 0 0
    outer loop
      vertex -82.3 120 0
      vertex -82.3 119.8 0.2
      vertex -82.3 119.8 0
    endloop
  endfacet
  facet normal 0 1 -0
    outer loop
      vertex -82.3 120 0
      vertex -82.5 120 0.2
      vertex -82.3 120 0.2
    endloop
  endfacet
  facet normal 0 1 0
    outer loop
      vertex -82.5 120 0.2
      vertex -82.3 120 0
      vertex -82.5 120 0
    endloop
  endfacet
  facet normal 0 0 -1
    outer loop
      vertex -82.5 119.8 0
      vertex -82.3 120 0
      vertex -82.3 119.8 0
    endloop
  endfacet
  facet normal -0 0 -1
    outer loop
      vertex -82.3 120 0
      vertex -82.5 119.8 0
      vertex -82.5 120 0
    endloop
  endfacet
  facet normal 0 -1 0
    outer loop
      vertex -82.5 119.8 0
      vertex -82.3 119.8 0.2
      vertex -82.5 119.8 0.2
    endloop
  endfacet
  facet normal 0 -1 -0
    outer loop
      vertex -82.3 119.8 0.2
      vertex -82.5 119.8 0
      vertex -82.3 119.8 0
    endloop
  endfacet
endsolid OpenSCAD_Model
